HIERARCHY
ROOT Hips
{
 OFFSET 0.000000 0.000000 0.000000
 CHANNELS 6 Xposition Yposition Zposition Yrotation Xrotation Zrotation
 JOINT Chest
 {
  OFFSET 0.000000 10.452742 -1.161416
  CHANNELS 3 Yrotation Xrotation Zrotation
  JOINT Chest2
  {
   OFFSET 0.000000 11.642015 0.000000
   CHANNELS 3 Yrotation Xrotation Zrotation
   JOINT Chest3
   {
    OFFSET 0.000000 10.628653 0.003331
    CHANNELS 3 Yrotation Xrotation Zrotation
    JOINT Chest4
    {
     OFFSET 0.000000 10.616789 0.003334
     CHANNELS 3 Yrotation Xrotation Zrotation
     JOINT Neck
     {
      OFFSET 0.000000 14.863263 0.000000
      CHANNELS 3 Yrotation Xrotation Zrotation
      JOINT Head
      {
       OFFSET 0.000000 9.883432 -0.007164
       CHANNELS 3 Yrotation Xrotation Zrotation
       End Site
       {
        OFFSET 0.000000 18.374284 -0.000963
       }
      }
     }
     JOINT RightCollar
     {
      OFFSET -3.226349 8.329632 0.000000
      CHANNELS 3 Yrotation Xrotation Zrotation
      JOINT RightShoulder
      {
       OFFSET -15.005172 0.000000 0.000000
       CHANNELS 3 Yrotation Xrotation Zrotation
       JOINT RightElbow
       {
        OFFSET -32.060772 0.000000 0.000000
        CHANNELS 3 Yrotation Xrotation Zrotation
        JOINT RightWrist
        {
         OFFSET -26.219035 0.000000 0.000000
         CHANNELS 3 Yrotation Xrotation Zrotation
         End Site
         {
          OFFSET -19.605622 0.000000 0.000000
         }
        }
       }
      }
     }
     JOINT LeftCollar
     {
      OFFSET 3.226349 8.329632 0.000000
      CHANNELS 3 Yrotation Xrotation Zrotation
      JOINT LeftShoulder
      {
       OFFSET 15.005172 0.000000 0.000000
       CHANNELS 3 Yrotation Xrotation Zrotation
       JOINT LeftElbow
       {
        OFFSET 32.060772 0.000000 0.000000
        CHANNELS 3 Yrotation Xrotation Zrotation
        JOINT LeftWrist
        {
         OFFSET 26.219035 0.000000 0.000000
         CHANNELS 3 Yrotation Xrotation Zrotation
         End Site
         {
          OFFSET 19.605622 0.000000 0.000000
         }
        }
       }
      }
     }
    }
   }
  }
 }
 JOINT RightHip
 {
  OFFSET -8.580723 -0.006978 0.000775
  CHANNELS 3 Yrotation Xrotation Zrotation
  JOINT RightKnee
  {
   OFFSET 0.000000 -44.536629 0.000787
   CHANNELS 3 Yrotation Xrotation Zrotation
   JOINT RightAnkle
   {
    OFFSET 0.000000 -43.528603 0.001328
    CHANNELS 3 Yrotation Xrotation Zrotation
    JOINT RightToe
    {
     OFFSET 0.000000 -7.259351 16.426635
     CHANNELS 3 Yrotation Xrotation Zrotation
     End Site
     {
      OFFSET 0.000000 -1.634445 7.029403
     }
    }
   }
  }
 }
 JOINT LeftHip
 {
  OFFSET 8.580723 -0.009328 0.001036
  CHANNELS 3 Yrotation Xrotation Zrotation
  JOINT LeftKnee
  {
   OFFSET 0.000000 -44.536629 0.000787
   CHANNELS 3 Yrotation Xrotation Zrotation
   JOINT LeftAnkle
   {
    OFFSET 0.000000 -43.528603 0.001328
    CHANNELS 3 Yrotation Xrotation Zrotation
    JOINT LeftToe
    {
     OFFSET 0.000000 -7.259351 16.426635
     CHANNELS 3 Yrotation Xrotation Zrotation
     End Site
     {
      OFFSET 0.000000 -1.634445 7.029403
     }
    }
   }
  }
 }
}
MOTION
Frames: 14
Frame Time: 0.004167
0.000000 96.820495 0.000000 0.000000 6.340192 0.000000 0.000000 -6.340192 0.000000 0.000000 -5.826342 0.000000 0.000000 -0.005910 0.000000 0.000000 5.832252 0.000000 0.000000 12.610213 0.000000 0.000000 -9.243752 0.000000 0.000000 0.000000 0.000000 0.000000 0.000000 0.000000 2.309063 0.000000 0.000000 -2.309063 0.000000 0.000000 0.000000 0.000000 0.000000 0.000000 0.000000 0.000000 -2.309063 0.000000 0.000000 2.309063 0.000000 0.000000 0.000000 -3.591006 0.000000 0.000000 1.872585 0.000000 0.000000 -4.621771 0.000000 0.000000 0.000000 0.000000 0.000000 -3.587706 0.000000 0.000000 1.905768 0.000000 0.000000 -4.658254 0.000000 0.000000 0.000000 0.000000
-0.000284 94.718721 0.071817 -1.021920 5.517848 -5.509767 3.511106 -2.087745 1.833508 1.483575 -6.739719 0.836211 1.473407 -0.921221 0.986819 1.182258 5.147650 0.745378 -0.729118 13.104536 0.812336 -1.713232 -11.674537 1.837178 -3.422958 0.290352 9.926628 1.951442 -5.873840 77.895062 6.028180 -2.816220 3.336013 1.337125 0.312288 -1.028451 -4.043191 -2.804490 -10.503191 -1.620436 -0.354225 -74.788209 -5.144267 1.410720 -7.344218 -1.121893 4.120516 11.523319 0.079221 -1.220964 4.651070 -1.969086 -3.809589 0.266455 -15.538702 -5.787784 0.367021 -0.000000 0.000000 -0.000000 6.958263 -26.439117 8.574066 -0.453458 3.245112 0.061993 -0.370551 23.867816 -2.159455 0.087937 -6.894389 -1.463092
-0.002063 94.736668 0.143980 -0.972375 5.538861 -5.457169 3.497204 -2.074062 1.804687 1.478545 -6.733927 0.823144 1.468429 -0.915415 0.973241 1.177455 5.151978 0.735139 -0.677122 13.091521 0.810990 -1.614388 -11.699902 1.813769 -3.389451 0.265967 9.962033 1.944881 -5.870692 77.876603 6.013606 -2.814744 3.335135 1.348118 0.316272 -1.031212 -4.037780 -2.829240 -10.471034 -1.626411 -0.392532 -74.799778 -5.139870 1.413737 -7.347291 -1.106921 4.123329 11.522206 0.089915 -1.213393 4.604273 -2.055594 -3.783239 0.266691 -15.531159 -5.747227 0.374646 -0.000000 -0.000000 -0.000000 6.956460 -26.422832 8.536043 -0.450745 3.281408 0.022901 -0.387573 23.771258 -2.156104 0.086529 -6.849175 -1.452326
-0.003852 94.754748 0.216382 -0.922093 5.559807 -5.403888 3.482995 -2.060193 1.775549 1.473393 -6.728055 0.809933 1.463329 -0.909529 0.959507 1.172548 5.156365 0.724781 -0.624406 13.078322 0.809667 -1.514174 -11.725591 1.790086 -3.355801 0.241454 9.997789 1.937939 -5.867547 77.857924 5.999166 -2.813035 3.334494 1.359106 0.320396 -1.033899 -4.032417 -2.854016 -10.438509 -1.632999 -0.431198 -74.811534 -5.135307 1.416836 -7.350299 -1.091748 4.126302 11.520998 0.100658 -1.205704 4.556883 -2.143331 -3.756687 0.266973 -15.523200 -5.705845 0.382195 0.000000 0.000000 -0.000000 6.954680 -26.406602 8.497444 -0.448434 3.318381 -0.016686 -0.404583 23.673698 -2.152523 0.085138 -6.804135 -1.441490
-0.005646 94.772896 0.288903 -0.871431 5.580697 -5.350254 3.468619 -2.046227 1.746259 1.468174 -6.722140 0.796653 1.458162 -0.903601 0.945697 1.167586 5.160784 0.714366 -0.571339 13.065025 0.808324 -1.413269 -11.751433 1.766199 -3.322076 0.216857 10.033697 1.930801 -5.864399 77.839140 5.984793 -2.811211 3.333975 1.370090 0.324590 -1.036552 -4.027076 -2.878811 -10.405807 -1.639885 -0.470045 -74.823387 -5.130662 1.419975 -7.353275 -1.076476 4.129356 11.519744 0.111411 -1.197926 4.509199 -2.231682 -3.730034 0.267294 -15.515020 -5.664052 0.389692 0.000000 -0.000000 0.000000 6.952891 -26.390392 8.458570 -0.446356 3.355699 -0.056514 -0.421598 23.575640 -2.148821 0.083761 -6.759182 -1.430621
-0.007440 94.791043 0.361425 -0.820747 5.601540 -5.296599 3.454217 -2.032255 1.716982 1.462945 -6.716221 0.783380 1.452985 -0.897668 0.931893 1.162616 5.165206 0.703955 -0.518288 13.051719 0.806923 -1.312352 -11.777256 1.742181 -3.288345 0.192221 10.069560 1.923651 -5.861243 77.820362 5.970419 -2.809391 3.333464 1.381072 0.328786 -1.039216 -4.021730 -2.903620 -10.373119 -1.646754 -0.508890 -74.835250 -5.126016 1.423115 -7.356250 -1.061203 4.132413 11.518496 0.122139 -1.190086 4.461521 -2.320036 -3.703383 0.267646 -15.506815 -5.622258 0.397166 0.000000 -0.000000 0.000000 6.951060 -26.374168 8.419721 -0.444342 3.393033 -0.096333 -0.438633 23.477586 -2.145109 0.082396 -6.714228 -1.419754
-0.009229 94.809124 0.433827 -0.770401 5.622346 -5.243256 3.439930 -2.018368 1.687883 1.457760 -6.710337 0.770188 1.447852 -0.891770 0.918175 1.157686 5.169602 0.693609 -0.465622 13.038492 0.805425 -1.212104 -11.802889 1.718107 -3.254678 0.167592 10.105176 1.916675 -5.858072 77.801702 5.955976 -2.807692 3.332850 1.392051 0.332912 -1.041930 -4.016353 -2.928435 -10.340635 -1.653289 -0.547553 -74.847035 -5.121452 1.426214 -7.359255 -1.046030 4.135391 11.517301 0.132802 -1.182217 4.414148 -2.407779 -3.676836 0.268021 -15.498780 -5.580876 0.404643 0.000000 -0.000000 -0.000000 6.949157 -26.357896 8.381197 -0.442222 3.430055 -0.135890 -0.455703 23.380038 -2.141495 0.081039 -6.669187 -1.408929
-0.011007 94.827071 0.505989 -0.720750 5.643129 -5.190558 3.425898 -2.004655 1.659126 1.452678 -6.704524 0.757153 1.442820 -0.885945 0.904624 1.152845 5.173943 0.683388 -0.413708 13.025432 0.803793 -1.113205 -11.828161 1.694056 -3.221142 0.143017 10.140350 1.910057 -5.854880 77.783273 5.941396 -2.806234 3.332017 1.403029 0.336899 -1.044739 -4.010916 -2.953252 -10.308545 -1.659175 -0.585852 -74.858657 -5.117051 1.429230 -7.362322 -1.031056 4.138213 11.516211 0.143365 -1.174351 4.367380 -2.494299 -3.650495 0.268410 -15.491111 -5.540316 0.412152 0.000000 0.000000 0.000000 6.947149 -26.341546 8.343299 -0.439824 3.466433 -0.174936 -0.472821 23.283500 -2.138088 0.079687 -6.623970 -1.398180
-0.012771 94.844817 0.577793 -0.672154 5.663901 -5.138837 3.412265 -1.991208 1.630875 1.447753 -6.698822 0.744349 1.437944 -0.880231 0.891320 1.148141 5.178202 0.673354 -0.362913 13.012630 0.801991 -1.016336 -11.852902 1.670109 -3.187807 0.118544 10.174881 1.903982 -5.851661 77.765187 5.926610 -2.805135 3.330855 1.414008 0.340676 -1.047682 -4.005396 -2.978063 -10.277041 -1.664099 -0.623604 -74.870028 -5.112897 1.432124 -7.365484 -1.016381 4.140798 11.515275 0.153789 -1.166521 4.321516 -2.578982 -3.624463 0.268803 -15.484005 -5.500991 0.419722 -0.000000 0.000000 -0.000000 6.945006 -26.325083 8.306325 -0.436974 3.501839 -0.213220 -0.490000 23.188474 -2.134996 0.078338 -6.578491 -1.387546
-0.014514 94.862294 0.649117 -0.624971 5.684678 -5.088426 3.399173 -1.978116 1.603294 1.443044 -6.693269 0.731851 1.433281 -0.874667 0.878343 1.143623 5.182349 0.663568 -0.313603 13.000174 0.799983 -0.922177 -11.876942 1.646352 -3.154743 0.094220 10.208575 1.898637 -5.848408 77.747554 5.911551 -2.804514 3.329249 1.424986 0.344174 -1.050802 -3.999764 -3.002863 -10.246314 -1.667746 -0.660629 -74.881063 -5.109070 1.434855 -7.368771 -1.002106 4.143068 11.514544 0.164040 -1.158763 4.276855 -2.661216 -3.598841 0.269191 -15.477659 -5.463310 0.427383 -0.000000 0.000000 -0.000000 6.942697 -26.308476 8.270576 -0.433499 3.535942 -0.250492 -0.507252 23.095462 -2.132328 0.076988 -6.532662 -1.377064
-0.016231 94.879438 0.719843 -0.579562 5.705476 -5.039659 3.386764 -1.965470 1.576548 1.438605 -6.687904 0.719734 1.428888 -0.869291 0.865775 1.139339 5.186356 0.654089 -0.266146 12.988153 0.797737 -0.831411 -11.900110 1.622869 -3.122018 0.070093 10.241232 1.894207 -5.845116 77.730487 5.896150 -2.804490 3.327089 1.435966 0.347321 -1.054142 -3.993996 -3.027643 -10.216553 -1.669801 -0.696742 -74.891676 -5.105653 1.437380 -7.372215 -0.988329 4.144942 11.514067 0.174081 -1.151113 4.233696 -2.740386 -3.573732 0.269564 -15.472271 -5.427686 0.435165 -0.000000 -0.000000 -0.000000 6.940192 -26.291695 8.236351 -0.429221 3.568413 -0.286502 -0.524588 23.004966 -2.130191 0.075634 -6.486396 -1.366771
-0.017918 94.896179 0.789850 -0.536286 5.726310 -4.992869 3.375182 -1.953361 1.550799 1.434496 -6.682765 0.708071 1.424820 -0.864142 0.853695 1.135338 5.190194 0.644979 -0.220907 12.976658 0.795220 -0.744719 -11.922236 1.599752 -3.089703 0.046212 10.272658 1.890877 -5.841777 77.714097 5.880338 -2.805183 3.324262 1.446947 0.350049 -1.057741 -3.988066 -3.052398 -10.187950 -1.669951 -0.731762 -74.901783 -5.102728 1.439659 -7.375849 -0.975152 4.146342 11.513895 0.183876 -1.143609 4.192337 -2.815882 -3.549237 0.269912 -15.468038 -5.394529 0.443100 0.000000 -0.000000 -0.000000 6.937462 -26.274709 8.203949 -0.423964 3.598920 -0.321002 -0.542018 22.917490 -2.128693 0.074274 -6.439606 -1.356704
-0.019570 94.912451 0.859020 -0.495503 5.747200 -4.948390 3.364571 -1.941879 1.526211 1.430772 -6.677890 0.696938 1.421134 -0.859259 0.842183 1.131669 5.193834 0.636297 -0.178254 12.965779 0.792399 -0.662783 -11.943153 1.577090 -3.057866 0.022626 10.302655 1.888834 -5.838385 77.698495 5.864048 -2.806712 3.320656 1.457931 0.352285 -1.061642 -3.981948 -3.077120 -10.160695 -1.667882 -0.765507 -74.911297 -5.100376 1.441651 -7.379704 -0.962673 4.147187 11.514078 0.193391 -1.136289 4.153077 -2.887089 -3.525460 0.270224 -15.465158 -5.364251 0.451219 0.000000 0.000000 0.000000 6.934476 -26.257486 8.173669 -0.417549 3.627134 -0.353742 -0.559552 22.833536 -2.127941 0.072905 -6.392205 -1.346900
-0.021205 94.928278 0.927495 -0.457129 5.768140 -4.906120 3.355011 -1.931010 1.502699 1.427473 -6.673275 0.686295 1.417870 -0.854636 0.831205 1.128358 5.197281 0.628019 -0.138192 12.955604 0.789319 -0.585637 -11.962696 1.554974 -3.026460 -0.000689 10.331387 1.887996 -5.834734 77.683704 5.847112 -2.809347 3.316433 1.468712 0.354231 -1.067582 -3.975646 -3.101613 -10.134660 -1.663068 -0.798352 -74.920208 -5.099082 1.443659 -7.384054 -0.950984 4.147341 11.514766 0.202649 -1.129035 4.115853 -2.954178 -3.502476 0.270477 -15.463560 -5.336688 0.459409 -0.000000 -0.000000 -0.000000 6.930995 -26.239864 8.145627 -0.409575 3.653067 -0.384880 -0.577472 22.752765 -2.128007 0.071496 -6.342959 -1.337269
